<svg version="1.0" xmlns="http://www.w3.org/2000/svg"
 width="512.000000pt" height="512.000000pt" viewBox="0 0 512.000000 512.000000"
 preserveAspectRatio="xMidYMid meet">
<rect width="100%" height="100%" fill="#ffffff"/>
<g transform="translate(0.000000,512.000000) scale(0.100000,-0.100000)"
fill="#000000" stroke="">
<path class="s0" d="M0 2560 l0 -2560 2560 0 2560 0 0 2560 0 2560 -2560 0 -2560 0 0
-2560z m4744 1237 c16 -12 19 -39 27 -218 11 -219 6 -259 -30 -259 -28 0 -49
25 -62 73 -17 62 -47 117 -88 160 -44 47 -89 71 -159 86 -71 15 -568 15 -611
0 -44 -15 -60 -53 -71 -167 -10 -106 -11 -635 -1 -747 l6 -70 235 2 c129 1
254 5 276 8 63 9 120 52 170 127 51 78 72 93 101 73 19 -13 20 -26 21 -277 0
-145 -2 -271 -4 -280 -3 -10 -14 -18 -24 -18 -31 0 -61 34 -99 111 -30 62 -43
78 -81 99 -43 24 -54 25 -235 28 -242 5 -310 -2 -341 -33 l-24 -24 0 -308 c1
-390 10 -525 43 -597 37 -80 80 -107 232 -145 76 -19 105 -38 105 -68 0 -30
-41 -36 -205 -28 -204 11 -380 11 -625 1 -163 -7 -198 -6 -214 6 -24 19 -15
51 19 66 14 6 60 20 104 31 138 35 197 78 223 164 20 64 19 1789 -1 1867 -30
119 -72 165 -176 195 -111 32 -145 47 -156 67 -9 16 -7 24 5 37 15 14 81 16
694 17 579 0 687 2 747 16 88 20 176 22 199 5z m-3537 -33 c54 -34 15 -68
-112 -99 -53 -13 -111 -33 -130 -45 -49 -30 -93 -84 -105 -129 -6 -25 -9 -184
-8 -447 l3 -409 722 -3 c720 -2 722 -2 733 18 8 15 10 144 8 423 -3 441 -4
445 -66 510 -38 40 -68 54 -179 83 -54 14 -103 30 -110 36 -19 15 -16 56 5 67
10 5 214 8 479 7 428 -1 464 -2 480 -19 14 -13 15 -21 7 -35 -16 -25 -48 -39
-142 -63 -49 -13 -96 -32 -113 -46 -61 -52 -60 -31 -57 -1089 3 -919 4 -961
22 -996 24 -46 85 -79 186 -103 112 -26 144 -53 103 -86 -13 -11 -104 -14
-487 -15 -503 -1 -506 -1 -506 47 0 24 19 33 105 52 137 31 208 75 247 155 23
47 23 51 26 465 2 311 0 422 -9 433 -10 12 -119 14 -719 14 -390 0 -715 -3
-724 -6 -14 -5 -16 -50 -16 -403 0 -446 1 -455 70 -534 49 -55 134 -100 230
-122 110 -24 144 -53 103 -86 -13 -11 -108 -14 -517 -15 -432 -1 -503 1 -518
14 -42 35 -9 64 102 88 152 32 201 79 221 206 15 98 7 1873 -9 1920 -18 52
-59 83 -139 103 -154 39 -193 65 -155 103 18 18 44 19 483 19 382 1 468 -2
486 -13z"/>
</g>
</svg>
