<?xml version="1.0" standalone="no"?>
<!DOCTYPE svg PUBLIC "-//W3C//DTD SVG 20010904//EN"
 "http://www.w3.org/TR/2001/REC-SVG-20010904/DTD/svg10.dtd">
<svg version="1.0" xmlns="http://www.w3.org/2000/svg"
 width="1024.000000pt" height="1024.000000pt" viewBox="0 0 1024.000000 1024.000000"
 preserveAspectRatio="xMidYMid meet">
<metadata>
Created by potrace 1.14, written by Peter Selinger 2001-2017
</metadata>
<g transform="translate(0.000000,1024.000000) scale(0.100000,-0.100000)"
fill="#000000" stroke="none">
<path d="M9269 7616 c-2 -2 -29 -6 -59 -9 -30 -3 -93 -13 -139 -22 -108 -21
-126 -23 -246 -32 -140 -10 -1575 -8 -1835 2 -342 14 -678 12 -725 -4 -54 -18
-75 -39 -75 -73 0 -61 76 -105 241 -143 203 -45 315 -117 372 -237 31 -65 63
-180 72 -257 4 -30 9 -63 11 -75 7 -34 6 -3418 -1 -3477 -9 -69 -42 -174 -70
-219 -60 -95 -179 -162 -365 -205 -219 -51 -262 -68 -296 -120 -22 -33 -8 -67
38 -92 28 -15 60 -17 213 -17 159 0 292 6 397 19 18 2 69 6 113 10 44 3 105 8
135 11 129 13 443 6 532 -11 9 -2 44 -6 77 -10 33 -3 70 -8 83 -11 13 -3 111
-7 218 -9 172 -2 200 -1 238 16 71 31 77 98 12 137 -37 23 -71 34 -232 72
-265 62 -377 159 -431 375 -26 102 -29 127 -43 455 -11 258 -13 1210 -3 1239
18 52 84 104 149 116 79 15 395 19 780 10 164 -3 204 -12 286 -60 66 -39 117
-105 159 -207 61 -147 90 -185 157 -201 41 -11 73 6 84 44 11 37 11 97 -2 344
-10 202 -10 287 0 450 17 278 19 251 -20 290 -52 52 -80 48 -142 -20 -28 -30
-62 -79 -76 -108 -33 -66 -106 -146 -174 -191 -85 -57 -158 -74 -334 -80 -84
-3 -218 -8 -298 -11 -80 -4 -232 -7 -337 -8 -246 -2 -232 -11 -241 169 -8 179
-7 1291 1 1444 14 265 58 356 180 379 55 10 1112 7 1172 -4 70 -12 188 -55
237 -86 116 -75 218 -220 268 -384 40 -135 72 -175 135 -175 32 0 53 23 61 67
19 101 -7 793 -33 859 -12 33 -58 48 -149 50 -51 2 -93 1 -95 0z"/>
<path d="M577 7559 c-100 -16 -150 -73 -111 -127 33 -44 87 -64 294 -111 87
-20 185 -61 226 -94 20 -17 47 -54 59 -81 49 -112 49 -80 50 -1996 0 -987 -3
-1829 -8 -1870 -18 -166 -66 -264 -160 -327 -64 -43 -137 -69 -292 -104 -198
-44 -261 -87 -225 -153 25 -47 78 -59 260 -61 91 -1 203 2 250 6 47 3 130 11
185 15 122 11 570 12 680 2 211 -20 264 -22 450 -22 187 0 203 1 242 22 57 30
73 83 36 124 -17 19 -68 35 -218 68 -186 42 -313 103 -416 202 -97 94 -150
188 -172 308 -14 74 -17 1548 -3 1588 5 16 15 22 39 23 18 0 671 0 1451 0
1226 1 1421 -1 1430 -14 8 -9 11 -273 10 -833 -1 -737 -3 -825 -18 -882 -53
-199 -200 -320 -461 -382 -44 -10 -113 -26 -153 -35 -90 -21 -122 -45 -122
-89 0 -42 35 -75 97 -91 47 -13 426 -13 481 -1 91 20 603 29 747 13 166 -19
210 -21 390 -21 172 0 194 2 236 21 87 39 81 110 -12 147 -23 9 -97 30 -163
46 -320 76 -388 143 -413 409 -4 42 -7 888 -7 1881 1 1962 -2 1869 55 2000 40
92 130 147 304 185 187 41 268 78 281 131 10 39 -18 69 -84 92 -50 17 -81 19
-233 17 -95 -1 -217 -6 -269 -11 -120 -10 -599 -10 -750 0 -63 5 -205 9 -316
11 -224 3 -280 -7 -317 -56 -17 -23 -18 -31 -8 -62 16 -46 78 -78 211 -106
143 -31 223 -56 289 -91 134 -72 208 -191 230 -370 3 -30 6 -397 6 -815 -1
-583 -4 -765 -13 -782 -10 -18 -22 -23 -55 -24 -23 0 -669 -1 -1436 -1 l-1395
-1 -20 24 c-21 24 -21 28 -20 809 1 432 4 804 8 827 22 150 117 275 259 342
54 25 174 64 240 77 12 2 38 7 57 11 19 4 37 7 40 8 3 0 29 9 57 19 107 36
127 122 39 169 -38 20 -55 21 -236 21 -107 0 -253 -4 -325 -9 -164 -11 -614
-11 -765 -1 -164 11 -437 14 -493 5z"/>
</g>
</svg>
